<?xml version="1.0" encoding="UTF-8"?>
<svg xmlns="http://www.w3.org/2000/svg" xmlns:xlink="http://www.w3.org/1999/xlink" xmlns:serif="http://www.serif.com/" width="100%" height="100%" viewBox="0 0 1884 423" xml:space="preserve" style="fill-rule:evenodd;clip-rule:evenodd;stroke-linejoin:round;stroke-miterlimit:2;">
  <path d="M1420.956,232.14c-20.681,-84.467 -104.525,-123.213 -189.907,-102.324c-85.423,20.888 -141.9,93.977 -121.22,178.445c20.681,84.468 104.525,123.213 189.948,102.324c85.423,-20.888 141.859,-93.977 121.22,-178.486l-0.042,0.042Zm-104.899,25.664c19.85,81.104 20.058,137.831 -17.732,147.05c-37.79,9.261 -63.787,-41.154 -83.637,-122.258c-19.85,-81.104 -20.058,-137.831 17.732,-147.05c37.79,-9.261 63.787,41.154 83.637,122.258Zm-1007.63,-160.09c0,-61.337 -76.743,-83.886 -150.538,-84.551c-73.795,-0.664 -133.304,0 -133.304,0l-24.584,0l0,6.52c12.749,1.869 24.584,20.473 24.584,45.058l0,292.231c0,24.626 -11.835,43.189 -24.584,45.058l0,6.52l157.889,0c94.351,0 174.334,-35.714 174.334,-124.127c0,-81.893 -96.677,-111.004 -125.788,-115.198l0,-2.326c16.57,-2.159 101.992,-7.849 101.992,-69.227l0,0.042Zm-180.272,75.705l26.246,0c39.742,0 70.597,40.739 70.597,111.004c0,86.129 -30.855,116.278 -70.597,116.278l-26.246,0l0,-227.282Zm79.11,-75.705c0,48.795 -32.682,66.112 -52.823,66.112l-26.246,0l0,-141.07l26.246,0c27.99,0 52.823,26.163 52.823,74.958Zm238.452,138.703l167.44,0c-1.495,-50.83 -47.882,-108.304 -124.583,-108.304c-72.092,0 -135.422,63.496 -135.422,145.97c0,82.474 62.499,143.105 132.391,143.105c75.83,0 116.568,-58.056 127.615,-75.747l-3.904,-5.232c-6.395,3.364 -29.692,16.403 -52.2,16.403c-49.501,0 -105.439,-26.079 -111.336,-116.195Zm-0.457,-9.925c-0.042,-1.952 -0.083,-3.987 -0.083,-6.022c0,-65.033 20.432,-83.969 42.857,-83.969c16.362,0 30.731,20.888 30.731,57.184c0,19.31 -6.395,32.765 -25.207,32.765l-48.297,0l0,0.042Zm302.779,134.135l0,-360.627l-133.346,45.639l0,5.897c15.947,2.575 35.382,13.206 35.382,46.013l0,263.078c0,26.079 -14.036,39.327 -26.329,41.943l0,6.229l150.58,0l0,-6.229c-12.292,-2.616 -26.287,-15.822 -26.287,-41.943Zm319.266,-249.748c-37.043,0 -71.885,35.132 -71.885,56.685c0,21.553 24.46,38.413 24.46,70.929c0,22.799 -10.797,49.667 -21.262,65.822l-12.334,16.196c0,0 -57.682,-128.113 -57.765,-128.321c-8.845,-19.892 -6.603,-41.528 6.561,-49.418l0,-6.229l-155.563,0l0,6.229c17.898,9.884 26.744,27.118 37.167,49.293l106.394,230.105l94.268,-122.59c16.196,-22.01 79.277,-105.231 79.277,-156.186c0,-23.256 -16.694,-32.558 -29.319,-32.558l0,0.042Zm448.542,-3.945c31.644,0 55.564,-23.754 55.564,-53.072c0,-29.319 -23.962,-53.031 -55.564,-53.031c-31.603,0 -55.564,23.754 -55.564,53.072c0,29.319 23.962,53.031 55.564,53.031Zm50.456,253.444l0,-239.408l-133.346,45.639l0,5.897c15.947,2.616 35.382,13.206 35.382,45.971l0,141.9c0,26.079 -14.036,39.327 -26.287,41.943l0,6.229l150.58,0l0,-6.229c-12.292,-2.616 -26.287,-15.822 -26.287,-41.943l-0.042,-0Zm275.329,-232.389c-49.833,0 -85.34,46.387 -98.296,68.521l-3.654,0l0,-75.456l-133.346,45.639l0,5.897c15.947,2.575 35.382,13.247 35.382,46.013l0,141.9c0,26.079 -14.036,39.327 -26.287,41.943l0,6.229l150.58,0l0,-6.229c-12.292,-2.616 -26.329,-15.822 -26.329,-41.943l0,-117.108c0,-27.45 17.483,-63.662 30.523,-63.662c8.97,0 9.261,9.261 9.261,20.515c0,17.566 12.707,28.613 29.942,28.613c42.317,0 73.878,-36.752 73.878,-63.164c0,-20.349 -11.752,-37.707 -41.694,-37.707l0.042,-0Z" style="fill:#c41230;fill-rule:nonzero;"></path>
</svg>
